<svg aria-hidden="true" style="position: absolute; width: 0; height: 0; overflow: hidden;" version="1.1" xmlns="http://www.w3.org/2000/svg" xmlns:xlink="http://www.w3.org/1999/xlink">
  <defs>
    <symbol id="icon-cancel" viewBox="0 0 32 32">
      <path stroke-linejoin="round" stroke-linecap="round" stroke-miterlimit="4" stroke-width="2.6667" d="M24 8l-16 16"></path>
      <path stroke-linejoin="round" stroke-linecap="round" stroke-miterlimit="4" stroke-width="2.6667" d="M8 8l16 16"></path>
    </symbol>
    <symbol id="icon-menu" viewBox="0 0 32 32">
      <path stroke-linejoin="round" stroke-linecap="round" stroke-miterlimit="4" stroke-width="2.2857" d="M4 11.333h24M4 20.667h24"></path>
    </symbol>
    <symbol id="icon-arrow-narrow-right" viewBox="0 0 32 32">
      <path stroke-linejoin="round" stroke-linecap="round" stroke-miterlimit="4" stroke-width="2" d="M5.333 16h21.333"></path>
      <path stroke-linejoin="round" stroke-linecap="round" stroke-miterlimit="4" stroke-width="2" d="M18.666 8l8 8-8 8"></path>
    </symbol>
    <symbol id="icon-arrow-narrow-left" viewBox="0 0 32 32">
      <path stroke-linejoin="round" stroke-linecap="round" stroke-miterlimit="4" stroke-width="2" d="M26.666 16h-21.333"></path>
      <path stroke-linejoin="round" stroke-linecap="round" stroke-miterlimit="4" stroke-width="2" d="M13.334 24l-8-8 8-8"></path>
    </symbol>
    <symbol id="icon-arrow-narrow-left1" viewBox="0 0 32 32">
      <path stroke-linejoin="round" stroke-linecap="round" stroke-miterlimit="4" stroke-width="2" d="M26.666 16h-21.333"></path>
      <path stroke-linejoin="round" stroke-linecap="round" stroke-miterlimit="4" stroke-width="2" d="M13.334 24l-8-8 8-8"></path>
    </symbol>
    <symbol id="icon-hourglass" viewBox="0 0 32 32">
      <path stroke-linejoin="round" stroke-linecap="round" stroke-miterlimit="4" stroke-width="2.6667" d="M24.217 2.667h-16.434c-0.617 0-1.117 0.5-1.117 1.117 0 3.554 1.412 6.962 3.925 9.475l1.626 1.626c0.161 0.161 0.242 0.242 0.3 0.32 0.352 0.473 0.352 1.121 0 1.594-0.058 0.077-0.139 0.158-0.3 0.32l-1.626 1.626c-2.513 2.513-3.925 5.921-3.925 9.475 0 0.617 0.5 1.117 1.117 1.117h16.434c0.617 0 1.117-0.5 1.117-1.117 0-3.554-1.412-6.962-3.925-9.475l-1.626-1.626c-0.161-0.161-0.242-0.242-0.3-0.32-0.353-0.473-0.353-1.121 0-1.594 0.058-0.077 0.139-0.158 0.3-0.32l1.626-1.626c2.513-2.513 3.925-5.921 3.925-9.475 0-0.617-0.5-1.117-1.117-1.117z"></path>
    </symbol>
    <symbol id="icon-pencil" viewBox="0 0 31 32">
      <path stroke-linejoin="round" stroke-linecap="round" stroke-miterlimit="4" stroke-width="2.7826" d="M1.391 29.217c2.783 0 6.411 0.475 8.313-1.426s1.902-4.985 0-6.887c-1.902-1.902-4.985-1.902-6.887 0s0 5.53-1.426 8.313z"></path>
      <path stroke-linejoin="round" stroke-linecap="round" stroke-miterlimit="4" stroke-width="2.7826" d="M9.739 20.869c-0.684-0.684-1.026-1.026-1.219-1.384-0.463-0.858-0.444-1.897 0.053-2.737 0.207-0.35 0.562-0.679 1.271-1.336l13.729-12.713c1.209-1.12 3.087-1.084 4.253 0.082s1.202 3.043 0.082 4.253l-12.713 13.729c-0.657 0.71-0.985 1.064-1.336 1.271-0.84 0.496-1.879 0.516-2.737 0.053-0.358-0.193-0.7-0.535-1.384-1.219z"></path>
    </symbol>
    <symbol id="icon-dialog" viewBox="0 0 33 32">
      <path stroke-linejoin="round" stroke-linecap="round" stroke-miterlimit="4" stroke-width="2.9091" d="M7.41 14.878c-0.090-0.583-0.137-1.18-0.137-1.787 0-6.427 5.244-11.636 11.713-11.636s11.713 5.21 11.713 11.636c0 1.452-0.267 2.841-0.756 4.123-0.102 0.266-0.152 0.399-0.175 0.503s-0.032 0.175-0.034 0.281c-0.002 0.106 0.012 0.224 0.041 0.458l0.585 4.757c0.063 0.515 0.095 0.772 0.009 0.96-0.075 0.164-0.208 0.294-0.374 0.366-0.189 0.081-0.446 0.044-0.959-0.032l-4.633-0.679c-0.242-0.035-0.363-0.053-0.473-0.052-0.109 0.001-0.184 0.009-0.291 0.031-0.108 0.023-0.246 0.074-0.521 0.177-1.285 0.481-2.677 0.745-4.131 0.745-0.608 0-1.206-0.046-1.789-0.135M9.646 30.545c4.313 0 7.809-3.582 7.809-8s-3.496-8-7.809-8c-4.313 0-7.809 3.582-7.809 8 0 0.888 0.141 1.742 0.402 2.541 0.11 0.337 0.165 0.506 0.183 0.621 0.019 0.12 0.022 0.188 0.015 0.31-0.007 0.116-0.036 0.248-0.094 0.511l-0.889 4.017 4.356-0.595c0.238-0.032 0.357-0.049 0.46-0.048 0.109 0.001 0.167 0.007 0.275 0.028 0.102 0.020 0.253 0.074 0.556 0.18 0.798 0.281 1.654 0.434 2.544 0.434z"></path>
    </symbol>
    <symbol id="icon-user" viewBox="0 0 32 32">
      <path stroke-linejoin="round" stroke-linecap="round" stroke-miterlimit="4" stroke-width="2.6667" d="M26.667 28c0-1.861 0-2.791-0.23-3.548-0.517-1.705-1.851-3.039-3.556-3.556-0.757-0.23-1.687-0.23-3.548-0.23h-6.667c-1.861 0-2.791 0-3.548 0.23-1.705 0.517-3.038 1.851-3.556 3.556-0.23 0.757-0.23 1.687-0.23 3.548"></path>
      <path stroke-linejoin="round" stroke-linecap="round" stroke-miterlimit="4" stroke-width="2.6667" d="M16 16c3.314 0 6-2.686 6-6s-2.686-6-6-6c-3.314 0-6 2.686-6 6s2.686 6 6 6z"></path>
    </symbol>
   <symbol id="icon-arrow-down" viewBox="0 0 48 32">
            <path stroke-width="8" d="M44 6 24 26 4 6"/>
        </symbol>
        
        <symbol id="icon-arrow-up" viewBox="0 0 48 32">
            <path stroke-width="8" d="M44 26 24 6 4 26"/>
        </symbol>
        <symbol id="icon-arrow-right" viewBox="0 0 32 32">
          <path stroke-linejoin="round" stroke-linecap="round" stroke-miterlimit="4" stroke-width="1.6" d="M5.334 16h21.333M18.667 8l8 8-8 8"></path>
        </symbol>
  </defs>
</svg>